<svg xmlns="http://www.w3.org/2000/svg" viewBox="0 0 96 96"><defs><linearGradient id="g" x1="0" y1="0" x2="0" y2="96" gradientUnits="userSpaceOnUse"><stop offset="0" stop-color="#f4e0ac"/><stop offset=".38" stop-color="#e0b268"/><stop offset=".7" stop-color="#c08f3f"/><stop offset="1" stop-color="#8f6a2c"/></linearGradient></defs><rect width="96" height="96" rx="20" fill="#170c1b"/><g transform="translate(4.8 4.8) scale(.9)"><circle cx="48" cy="48" r="45" fill="none" stroke="url(#g)" stroke-width="2.6"/><circle cx="48" cy="48" r="39.2" fill="none" stroke="url(#g)" stroke-width="1.2"/><path fill="url(#g)" d="M36.92 65.85Q32.3 65.85 29.38 64.31Q26.47 62.78 25.02 60.28Q23.56 57.79 23.22 54.82Q22.88 51.86 23.4 48.95Q24.13 44.94 26.03 41.82Q27.93 38.7 30.63 36.55Q33.34 34.39 36.51 33.27Q39.68 32.15 42.96 32.15Q45.09 32.15 47.3 32.59Q49.51 33.04 50.7 33.66Q51.07 33.87 51.12 34.08Q51.17 34.28 51.12 34.86L50.29 41.82Q50.29 41.98 50.03 41.98Q49.77 41.98 49.72 41.82Q48.83 37.98 46.52 35.77Q44.2 33.56 40.82 33.56Q37.86 33.56 35.44 35.19Q33.02 36.83 31.44 39.87Q29.85 42.92 29.23 47.23Q28.71 50.77 29.02 53.94Q29.33 57.11 30.37 59.56Q31.41 62 33.15 63.4Q34.9 64.81 37.24 64.81Q39.84 64.81 42.54 62.88Q45.24 60.96 48.26 56.9Q48.42 56.7 48.65 56.83Q48.88 56.96 48.83 57.06L47.43 63.04Q47.27 63.66 47.12 63.9Q46.96 64.13 46.49 64.24Q43.89 65.12 41.42 65.48Q38.95 65.85 36.92 65.85ZM45.52 65.22Q45.42 65.22 45.42 64.91Q45.42 64.6 45.52 64.6Q46.93 64.6 47.68 64.34Q48.44 64.08 48.8 63.3Q49.16 62.52 49.42 61.01L53.69 36.94Q54.1 34.65 53.61 34Q53.12 33.35 51.14 33.35Q50.98 33.35 50.98 33.04Q50.98 32.72 51.14 32.72Q52.28 32.72 53.71 32.8Q55.14 32.88 56.81 32.88Q57.85 32.88 59.67 32.72Q61.49 32.57 63.05 32.57Q66.27 32.57 68.64 33.56Q71 34.54 72.15 36.57Q73.29 38.6 72.72 41.67Q72.25 44.32 70.85 46.19Q69.44 48.06 67.57 49.26Q65.7 50.46 63.67 51.03Q61.64 51.6 59.88 51.6Q59.3 51.6 58.78 51.55Q58.26 51.5 57.74 51.34Q57.64 51.29 57.74 50.77Q57.85 50.25 58.06 50.3Q58.42 50.4 58.81 50.46Q59.2 50.51 59.56 50.51Q61.23 50.51 62.76 49.7Q64.3 48.9 65.44 47.18Q66.58 45.46 67 42.71Q67.47 39.8 66.84 37.79Q66.22 35.79 64.95 34.73Q63.67 33.66 62.06 33.66Q60.97 33.66 60.34 33.92Q59.72 34.18 59.38 34.91Q59.04 35.64 58.73 37.04L54.52 61.01Q54.16 63.25 54.65 63.92Q55.14 64.6 57.07 64.6Q57.22 64.6 57.22 64.91Q57.22 65.22 57.07 65.22Q55.92 65.22 54.42 65.17Q52.91 65.12 51.19 65.12Q49.58 65.12 48.12 65.17Q46.67 65.22 45.52 65.22Z"/></g></svg>
